<mxfile host="app.diagrams.net" modified="2023-12-09T21:54:15.643Z" agent="Mozilla/5.0 (Macintosh; Intel Mac OS X 10_15_7) AppleWebKit/605.1.15 (KHTML, like Gecko) Version/17.1 Safari/605.1.15" version="22.1.7" etag="E8IZrfX-J5tkb-424dW2" type="github">
  <diagram name="Pagina-1" id="nGPAaurNC0Zqhz78jgdj">
    <mxGraphModel>
      <root>
        <mxCell id="0" />
        <mxCell id="1" parent="0" />
      </root>
    </mxGraphModel>
  </diagram>
</mxfile>
